<svg width="56" height="54" viewBox="0 0 56 54" fill="none" xmlns="http://www.w3.org/2000/svg">
<path d="M15.4251 4.69461V9.22155H18.9461V4.02395H32.3593V9.22155H35.5449V4.69461C35.5449 2.47224 33.7433 0.670654 31.521 0.670654H19.4491C17.2267 0.670654 15.4251 2.47224 15.4251 4.69461Z" fill="url(#paint0_linear)"/>
<path d="M5.7006 8.71856C2.55224 8.71856 0 11.2708 0 14.4192V37.5569C0 40.7052 2.55224 43.2575 5.7006 43.2575H29.7765C28.3295 40.8587 27.497 38.0475 27.497 35.0419C27.497 26.245 34.6283 19.1138 43.4251 19.1138C45.7555 19.1138 47.9691 19.6142 49.9641 20.5135V14.4192C49.9641 11.2708 47.4118 8.71856 44.2635 8.71856H5.7006Z" fill="url(#paint1_linear)"/>
<circle cx="43.76" cy="34.7066" r="11.0659" stroke="url(#paint2_linear)" stroke-width="2.34731"/>
<line x1="36.7098" y1="41.7401" x2="25.9792" y2="52.4706" stroke="#5969FC" stroke-width="2.34731"/>
<defs>
<linearGradient id="paint0_linear" x1="-0.46633" y1="2.19161" x2="52.9353" y2="7.06122" gradientUnits="userSpaceOnUse">
<stop stop-color="#5956FF"/>
<stop offset="1" stop-color="#5A98F4"/>
</linearGradient>
<linearGradient id="paint1_linear" x1="-0.46633" y1="2.19161" x2="52.9353" y2="7.06122" gradientUnits="userSpaceOnUse">
<stop stop-color="#5956FF"/>
<stop offset="1" stop-color="#5A98F4"/>
</linearGradient>
<linearGradient id="paint2_linear" x1="31.292" y1="23.3413" x2="57.5144" y2="25.3794" gradientUnits="userSpaceOnUse">
<stop stop-color="#5956FF"/>
<stop offset="1" stop-color="#5A98F4"/>
</linearGradient>
</defs>
</svg>
