<svg width="111" height="145" viewBox="0 0 111 145" fill="none" xmlns="http://www.w3.org/2000/svg">
<path d="M0.399959 94.7415C-2.09209 89.7485 7.87612 58.5421 7.87612 58.5421C7.87612 58.5421 11.6142 -13.8568 76.4076 2.37057C141.201 18.5979 95.098 90.9967 95.098 90.9967C95.098 90.9967 102.574 129.693 101.328 132.189C100.082 134.686 56.4712 147.168 53.9791 144.672C51.4871 142.175 48.995 132.189 46.503 128.444C44.0109 124.7 24.0745 128.444 17.8443 123.451C11.6142 118.458 15.3523 99.7345 14.1063 98.4863C12.8602 97.238 2.89201 99.7345 0.399959 94.7415Z" fill="url(#paint0_linear)"/>
<defs>
<linearGradient id="paint0_linear" x1="-1.036" y1="5.17855" x2="118.165" y2="12.271" gradientUnits="userSpaceOnUse">
<stop stop-color="#5956FF"/>
<stop offset="1" stop-color="#5A98F4"/>
</linearGradient>
</defs>
</svg>
