<svg width="138" height="159" viewBox="0 0 138 159" fill="none" xmlns="http://www.w3.org/2000/svg">
<path d="M20.2742 120.492C14.9794 111.512 17.076 35.3798 17.076 29.8291C17.076 24.2783 27.7365 0.224854 68.2465 0.224854C108.756 0.224854 121.549 22.428 122.615 29.8291C123.681 37.2301 119.16 110.281 116.219 120.492C113.277 130.703 88.309 152.675 83.1712 155.647C78.0335 158.619 58.7843 159.014 52.2557 155.647C45.7272 152.28 25.5689 129.472 20.2742 120.492Z" fill="url(#paint0_linear)"/>
<path d="M135.272 75.751L131.207 83.5928C129.784 86.3361 125.616 84.9617 126.105 81.9106L127.089 75.7591L127.39 68.3186C127.506 65.4525 131.404 64.6934 132.587 67.3066L135.335 73.377C135.678 74.1363 135.655 75.0111 135.272 75.751Z" fill="url(#paint1_linear)"/>
<path d="M2.71677 75.751L6.78176 83.5929C8.20379 86.3361 12.3722 84.9617 11.8838 81.9106L10.8989 75.7591L10.5983 68.3186C10.4825 65.4525 6.58386 64.6934 5.40112 67.3066L2.65359 73.377C2.30996 74.1363 2.33324 75.0111 2.71677 75.751Z" fill="url(#paint2_linear)"/>
<defs>
<linearGradient id="paint0_linear" x1="15.6762" y1="5.86061" x2="129.716" y2="11.8207" gradientUnits="userSpaceOnUse">
<stop stop-color="#5956FF"/>
<stop offset="1" stop-color="#5A98F4"/>
</linearGradient>
<linearGradient id="paint1_linear" x1="127.604" y1="58.3288" x2="138.134" y2="59.6381" gradientUnits="userSpaceOnUse">
<stop stop-color="#5956FF"/>
<stop offset="1" stop-color="#5A98F4"/>
</linearGradient>
<linearGradient id="paint2_linear" x1="10.384" y1="58.3288" x2="-0.145638" y2="59.6381" gradientUnits="userSpaceOnUse">
<stop stop-color="#5956FF"/>
<stop offset="1" stop-color="#5A98F4"/>
</linearGradient>
</defs>
</svg>
