<svg width="24" height="24" viewBox="0 0 24 24" fill="none" xmlns="http://www.w3.org/2000/svg">
<path fill-rule="evenodd" clip-rule="evenodd" d="M0 12C0 5.376 5.364 0 11.988 0C18.624 0 24 5.376 24 12C24 18.624 18.624 24 11.988 24C5.364 24 0 18.624 0 12ZM13.2 11.2C13.2 10.54 12.66 10 12 10C11.34 10 10.8 10.54 10.8 11.2V16C10.8 16.66 11.34 17.2 12 17.2C12.66 17.2 13.2 16.66 13.2 16V11.2ZM12 21.6C6.696 21.6 2.4 17.304 2.4 12C2.4 6.696 6.696 2.4 12 2.4C17.304 2.4 21.6 6.696 21.6 12C21.6 17.304 17.304 21.6 12 21.6ZM12 8.4C12.6628 8.4 13.2 7.86274 13.2 7.2C13.2 6.53726 12.6628 6 12 6C11.3373 6 10.8 6.53726 10.8 7.2C10.8 7.86274 11.3373 8.4 12 8.4Z" fill="black"/>
</svg>
